HIERARCHY
ROOT Hips
{
	OFFSET 0.000000 0.000000 0.000000
	CHANNELS 6 Xposition Yposition Zposition Xrotation Yrotation Zrotation
	JOINT LeftUpLeg_virtual
	{
		OFFSET 0.000000 0.000000 0.000000
		CHANNELS 3 Xrotation Yrotation Zrotation
		JOINT LeftUpLeg
		{
			OFFSET 11.394100 -6.187798 -0.413800
			CHANNELS 3 Xrotation Yrotation Zrotation
			JOINT LeftLeg
			{
				OFFSET 0.430247 -32.302673 3.732800
				CHANNELS 3 Xrotation Yrotation Zrotation
				JOINT LeftFoot
				{
					OFFSET -0.430247 -48.264931 -6.423300
					CHANNELS 3 Xrotation Yrotation Zrotation
					JOINT LeftToeBase
					{
						OFFSET 4.230900 -16.068199 23.438400
						CHANNELS 3 Xrotation Yrotation Zrotation
						JOINT LeftToe_End
						{
							OFFSET 4.510700 0.695400 19.974600
							CHANNELS 3 Xrotation Yrotation Zrotation
							End Site
							{
								OFFSET 0 0 0
							}
						}
					}
				}
			}
		}
	}
	JOINT RightUpLeg_virtual
	{
		OFFSET 0.000000 0.000000 0.000000
		CHANNELS 3 Xrotation Yrotation Zrotation
		JOINT RightUpLeg
		{
			OFFSET -11.333700 -6.187798 -0.413800
			CHANNELS 3 Xrotation Yrotation Zrotation
			JOINT RightLeg
			{
				OFFSET -0.430392 -32.302628 3.733000
				CHANNELS 3 Xrotation Yrotation Zrotation
				JOINT RightFoot
				{
					OFFSET 0.430392 -48.264973 -6.423500
					CHANNELS 3 Xrotation Yrotation Zrotation
					JOINT RightToeBase
					{
						OFFSET -4.230900 -16.068199 23.438400
						CHANNELS 3 Xrotation Yrotation Zrotation
						JOINT RightToe_End
						{
							OFFSET -4.510700 0.695400 19.974600
							CHANNELS 3 Xrotation Yrotation Zrotation
							End Site
							{
								OFFSET 0 0 0
							}
						}
					}
				}
			}
		}
	}
	JOINT Spine_virtual
	{
		OFFSET 0.000000 0.000000 0.000000
		CHANNELS 3 Xrotation Yrotation Zrotation
		JOINT Spine
		{
			OFFSET -0.002400 12.777504 0.315300
			CHANNELS 3 Xrotation Yrotation Zrotation
			JOINT Spine1
			{
				OFFSET -0.002067 5.816869 0.032633
				CHANNELS 3 Xrotation Yrotation Zrotation
				JOINT Spine1_split
				{
					OFFSET -0.002067 5.816869 0.032633
					CHANNELS 3 Xrotation Yrotation Zrotation
					JOINT Spine2
					{
						OFFSET -0.002067 5.816869 0.032633
						CHANNELS 3 Xrotation Yrotation Zrotation
						JOINT Neck_virtual
						{
							OFFSET 0.000000 0.000000 0.000000
							CHANNELS 3 Xrotation Yrotation Zrotation
							JOINT Neck
							{
								OFFSET -0.003700 21.199493 -0.826900
								CHANNELS 3 Xrotation Yrotation Zrotation
								JOINT Head
								{
									OFFSET 0.000000 20.442200 4.834800
									CHANNELS 3 Xrotation Yrotation Zrotation
									JOINT HeadTop_End
									{
										OFFSET 0.000000 34.668396 4.968400
										CHANNELS 3 Xrotation Yrotation Zrotation
										End Site
										{
											OFFSET 0 0 0
										}
									}
								}
							}
						}
						JOINT LeftShoulder_virtual
						{
							OFFSET 0.000000 0.000000 0.000000
							CHANNELS 3 Xrotation Yrotation Zrotation
							JOINT LeftShoulder
							{
								OFFSET 3.288150 8.794197 -1.372250
								CHANNELS 3 Xrotation Yrotation Zrotation
								JOINT LeftShoulder_split
								{
									OFFSET 3.288150 8.794197 -1.372250
									CHANNELS 3 Xrotation Yrotation Zrotation
									JOINT LeftArm
									{
										OFFSET 11.953299 -2.279007 -0.146200
										CHANNELS 3 Xrotation Yrotation Zrotation
										JOINT LeftForeArm
										{
											OFFSET 18.448900 0.000000 0.000000
											CHANNELS 3 Xrotation Yrotation Zrotation
											JOINT LeftHand
											{
												OFFSET 29.527798 0.000000 0.000000
												CHANNELS 3 Xrotation Yrotation Zrotation
												End Site
												{
													OFFSET 0 0 0
												}
											}
										}
									}
								}
							}
						}
						JOINT RightShoulder_virtual
						{
							OFFSET 0.000000 0.000000 0.000000
							CHANNELS 3 Xrotation Yrotation Zrotation
							JOINT RightShoulder
							{
								OFFSET -3.249400 8.794197 -1.372250
								CHANNELS 3 Xrotation Yrotation Zrotation
								JOINT RightShoulder_split
								{
									OFFSET -3.249400 8.794197 -1.372250
									CHANNELS 3 Xrotation Yrotation Zrotation
									JOINT RightArm
									{
										OFFSET -11.953299 -2.279007 -0.146200
										CHANNELS 3 Xrotation Yrotation Zrotation
										JOINT RightForeArm
										{
											OFFSET -18.448900 0.000000 0.000000
											CHANNELS 3 Xrotation Yrotation Zrotation
											JOINT RightHand
											{
												OFFSET -29.527802 0.000000 0.000000
												CHANNELS 3 Xrotation Yrotation Zrotation
												End Site
												{
													OFFSET 0 0 0
												}
											}
										}
									}
								}
							}
						}
					}
				}
			}
		}
	}
}
MOTION
Frames: 7
Frame Time: 0.03333333
-1.163733 85.314095 -0.890549 0.000000 0.000000 0.000000 2.137461 -62.685195 5.296351 -40.078768 5.488247 27.066202 42.628542 -6.703721 -6.111535 -3.321786 -2.982943 -8.586229 0.352383 0.994375 -0.139824 0.000000 0.000000 0.000000 1.171535 -61.235433 5.302756 -38.979097 -3.639019 -27.490402 50.310200 5.257701 -5.788032 -16.965594 0.164004 22.951300 3.959610 -0.064692 -0.169354 0.000000 0.000000 0.000000 1.781717 -61.429560 5.016944 10.341352 0.908757 -2.021428 9.151069 -0.083303 -5.820366 0.798566 -2.996477 1.470571 0.000000 0.000000 0.000000 10.174115 0.280698 -5.794855 -18.795448 20.967164 10.544139 5.132633 29.888826 -5.865048 0.000000 0.000000 0.000000 10.979340 -0.220855 -5.499093 -6.340090 -10.835720 -4.431212 0.295500 -0.042000 -3.585600 -19.793369 8.425002 -34.019120 2.626356 -46.670566 2.309723 0.000000 0.000000 0.000000 10.097412 -0.066035 -5.395254 -4.710440 10.926015 3.933013 4.348360 2.418034 -0.659145 -34.556212 -20.804814 36.394079 -155.337872 63.305533 153.389738 0.000000 0.000000 0.000000 
-1.161590 85.303604 -0.708744 0.000000 0.000000 0.000000 2.082945 -62.670442 5.330635 -40.048340 5.563344 26.950417 42.674902 -6.618587 -6.134262 -3.410648 -2.943097 -8.498831 0.339079 0.969017 -0.088319 0.000000 0.000000 0.000000 1.097408 -61.335399 5.313779 -38.982198 -3.558785 -27.675319 50.408504 5.322702 -5.755490 -17.019959 0.094928 22.932461 3.823108 -0.014634 -0.217735 0.000000 0.000000 0.000000 1.838959 -61.460433 5.113257 10.347374 0.964569 -2.061313 9.181743 -0.038313 -5.803718 0.810476 -3.128397 1.462840 0.000000 0.000000 0.000000 10.197575 0.309224 -5.812468 -18.666147 20.836829 10.645703 5.030342 29.858001 -5.853243 0.000000 0.000000 0.000000 11.001625 -0.207354 -5.471593 -6.373069 -10.980870 -4.440379 0.174706 -0.155654 -3.544022 -19.934310 8.341370 -34.040659 2.442713 -46.497886 2.335051 0.000000 0.000000 0.000000 9.982534 -0.065881 -5.369001 -4.731550 10.908220 3.909916 4.638171 2.350750 -0.644427 -34.519588 -20.890769 36.650826 -155.274993 63.084986 153.150135 0.000000 0.000000 0.000000 
-1.070154 85.322502 -0.459084 0.000000 0.000000 0.000000 2.072473 -62.591287 5.432251 -39.955391 5.644237 26.713889 42.884729 -6.583637 -6.153149 -3.649650 -2.956069 -8.293889 0.278471 0.934936 -0.016374 0.000000 0.000000 0.000000 1.055990 -61.334785 5.377518 -38.761067 -3.604179 -28.022485 50.119962 5.430209 -5.738748 -16.910882 0.047264 23.096471 3.722465 0.005598 -0.197540 0.000000 0.000000 0.000000 1.934511 -61.460877 5.286850 10.325020 1.061997 -2.129209 9.215868 0.002389 -5.761526 0.839944 -3.162687 1.419613 0.000000 0.000000 0.000000 10.200467 0.337094 -5.804165 -18.557957 20.544526 10.738388 4.926744 29.673634 -6.060794 0.000000 0.000000 0.000000 10.986274 -0.209111 -5.423914 -6.418223 -11.141506 -4.547180 -0.017080 -0.221965 -3.564729 -20.351648 7.998198 -33.961886 2.450305 -45.925396 2.637168 0.000000 0.000000 0.000000 9.858006 -0.068702 -5.324682 -4.780888 10.886848 4.063813 4.734563 2.246876 -0.591174 -34.285883 -21.176513 37.056160 -155.542218 63.304167 152.884974 0.000000 0.000000 0.000000 
-0.902965 85.359367 -0.164150 0.000000 0.000000 0.000000 2.125503 -62.490207 5.603131 -39.845978 5.717983 26.378896 43.249673 -6.579067 -6.176044 -4.009184 -3.023186 -7.982499 0.224395 0.894683 0.069162 0.000000 0.000000 0.000000 1.068890 -61.247823 5.494856 -38.389020 -3.752938 -28.501290 49.474434 5.565017 -5.723264 -16.633754 0.022349 23.416706 3.674896 0.002356 -0.136803 0.000000 0.000000 0.000000 2.047425 -61.430038 5.495865 10.279533 1.183112 -2.214534 9.251471 0.035458 -5.693358 0.849107 -3.125819 1.311104 0.000000 0.000000 0.000000 10.185548 0.358286 -5.765661 -18.481539 20.050519 10.845638 4.836321 29.314069 -6.481753 0.000000 0.000000 0.000000 10.937796 -0.223409 -5.349700 -6.475778 -11.291045 -4.728554 -0.323177 -0.214660 -3.592271 -20.926745 7.459052 -33.801862 2.620566 -45.132463 3.183724 0.000000 0.000000 0.000000 9.728302 -0.077944 -5.260619 -4.856787 10.874861 4.359569 4.645331 2.130475 -0.517699 -34.022600 -21.596959 37.515333 -156.023760 64.006331 152.482525 0.000000 0.000000 0.000000 
-0.684906 85.417328 0.198845 0.000000 0.000000 0.000000 2.228194 -62.389448 5.821727 -39.733826 5.793731 25.954596 43.717770 -6.561065 -6.207424 -4.467308 -3.118328 -7.569526 0.206133 0.853577 0.158837 0.000000 0.000000 0.000000 1.140319 -61.131170 5.662269 -37.941738 -3.964326 -29.064033 48.506542 5.729248 -5.700052 -16.214463 0.033254 23.872191 3.638195 -0.019576 -0.077295 0.000000 0.000000 0.000000 2.173491 -61.362884 5.706764 10.210673 1.304594 -2.305200 9.283789 0.056849 -5.597878 0.852024 -3.002382 1.200647 0.000000 0.000000 0.000000 10.160170 0.365847 -5.696670 -18.428124 19.317358 10.988654 4.765476 28.771441 -7.117445 0.000000 0.000000 0.000000 10.860367 -0.244822 -5.243179 -6.547400 -11.421410 -4.979711 -0.653334 -0.119914 -3.617153 -21.527634 6.800792 -33.598203 2.859997 -44.374547 3.895461 0.000000 0.000000 0.000000 9.600510 -0.095120 -5.178521 -4.951026 10.881176 4.759118 4.433922 2.010533 -0.364825 -33.890108 -22.021682 37.907362 -156.554575 65.201191 151.788182 0.000000 0.000000 0.000000 
-0.447582 85.508362 0.645500 0.000000 0.000000 0.000000 2.356516 -62.311679 6.058364 -39.600935 5.889086 25.456617 44.222036 -6.488865 -6.247537 -5.018199 -3.205199 -7.075188 0.228924 0.817690 0.241439 0.000000 0.000000 0.000000 1.250896 -61.035568 5.857192 -37.478648 -4.208481 -29.667084 47.277360 5.906363 -5.656340 -15.638852 0.084606 24.434682 3.541299 -0.055275 -0.047709 0.000000 0.000000 0.000000 2.314676 -61.286345 5.907260 10.118891 1.403726 -2.391513 9.310187 0.060595 -5.482494 0.898893 -2.838171 1.114179 0.000000 0.000000 0.000000 10.127425 0.356755 -5.606322 -18.382476 18.320311 11.167018 4.691052 27.995497 -7.927677 0.000000 0.000000 0.000000 10.758828 -0.269700 -5.108884 -6.632832 -11.536438 -5.303217 -0.959800 -0.049475 -3.638388 -21.995455 6.193621 -33.368162 3.117010 -43.916542 4.727117 0.000000 0.000000 0.000000 9.479258 -0.120102 -5.086526 -5.069947 10.896932 5.249180 4.207475 2.022183 -0.241436 -34.029696 -22.333312 38.102262 -156.852740 66.897598 150.558078 0.000000 0.000000 0.000000 
-0.204437 85.634331 1.192898 0.000000 0.000000 0.000000 2.512877 -62.285014 6.298654 -39.408836 6.016857 24.893698 44.692595 -6.331379 -6.289695 -5.655034 -3.251113 -6.511057 0.258921 0.789147 0.314446 0.000000 0.000000 0.000000 1.418812 -60.971186 6.080787 -36.999644 -4.479826 -30.277744 45.816260 6.083586 -5.578414 -14.893091 0.187297 25.067330 3.402372 -0.101997 -0.062124 0.000000 0.000000 0.000000 2.481281 -61.220092 6.095588 10.003653 1.468121 -2.467291 9.323721 0.056000 -5.361242 0.990908 -2.647520 1.017526 0.000000 0.000000 0.000000 10.075703 0.340216 -5.512389 -18.319452 17.029776 11.362549 4.610599 26.903232 -8.866897 0.000000 0.000000 0.000000 10.640006 -0.291198 -4.967012 -6.729355 -11.640885 -5.703362 -1.249465 -0.105616 -3.656002 -22.273358 5.794471 -33.135782 3.356500 -43.903910 5.648025 0.000000 0.000000 0.000000 9.364320 -0.145771 -4.997723 -5.210419 10.935024 5.855103 4.055658 2.176518 -0.133382 -34.432688 -22.485224 38.048231 -156.572224 69.052489 148.531507 0.000000 0.000000 0.000000 
